<svg width="20" height="20" viewBox="0 0 20 20" fill="none" xmlns="http://www.w3.org/2000/svg">
<path d="M18.5715 12.8569C18.177 12.8569 17.8572 13.1767 17.8572 13.5712V17.8569C17.8572 18.2514 17.5374 18.5712 17.1429 18.5712H2.85725C2.46275 18.5712 2.14295 18.2514 2.14295 17.8569V13.5712C2.14295 13.1767 1.82316 12.8569 1.42865 12.8569C1.03415 12.8569 0.714355 13.1767 0.714355 13.5712V17.8569C0.714355 19.0404 1.67374 19.9998 2.85721 19.9998H17.1429C18.3264 19.9998 19.2858 19.0404 19.2858 17.8569V13.5712C19.2858 13.1767 18.966 12.8569 18.5715 12.8569Z" fill="#398BF7"/>
<path d="M14.0604 12.3521C13.7836 12.0848 13.3448 12.0848 13.068 12.3521L10.7144 14.7043V0.714299C10.7144 0.319796 10.3946 0 10.0001 0C9.60561 0 9.28582 0.319796 9.28582 0.714299V14.7043L6.93365 12.3521C6.64989 12.0781 6.19771 12.086 5.92366 12.3697C5.65631 12.6465 5.65631 13.0853 5.92366 13.3621L9.49508 16.9335C9.77369 17.2128 10.226 17.2134 10.5052 16.9348C10.5057 16.9344 10.5061 16.934 10.5065 16.9335L14.078 13.3621C14.352 13.0784 14.3442 12.6262 14.0604 12.3521Z" fill="#398BF7"/>
</svg>
