<svg width="50" height="50" viewBox="0 0 50 50" fill="none" xmlns="http://www.w3.org/2000/svg">
<circle cx="25" cy="25" r="25" fill="#042446"/>
<path d="M35 13.9333V17H34.5283L30.0314 12.0133C30.0314 11.6667 30 11.32 30 11H32.7987C33.3333 12.0933 34.0881 13.0533 35 13.9333Z" fill="#64CFD7"/>
<path d="M35 11V14C34.1714 13.1273 33.4857 12.1182 33 11H35Z" fill="#FF7500"/>
<path d="M34 24V29H33.5349C33.3953 27.4911 33.2093 25.9822 33 24.6213C33.3023 24.3846 33.6512 24.1775 34 24Z" fill="#00B02C"/>
<path d="M34 23.0278V24.4167C33.7414 24.6111 33.4828 24.8056 33.2586 25C33.1724 24.2778 33.0862 23.6111 33 23H34V23.0278Z" fill="#FFE91A"/>
<path d="M33 29H31C31.2198 28.0204 31.3297 26.932 31.3736 25.8435C31.7033 25.5442 32.0769 25.2721 32.4725 25C32.6703 26.2517 32.8681 27.6122 33 29Z" fill="#FF5E2C"/>
<path d="M33 17H30C30.2079 16.1356 30.297 15.0932 30.3267 14L33 17Z" fill="#FF7C9C"/>
<path d="M31 26C31.0784 24.9412 31.0784 23.9118 31.0784 23H32.4118C32.6078 23.6471 32.8039 24.3529 33 25.1176C32.2549 25.3824 31.5882 25.6765 31 26Z" fill="#FF7C9C"/>
<path d="M31.9523 25.7945C30.4551 26.7808 29.4474 27.8767 28.7563 29H27C27.3455 26.8356 27.7486 24.6438 27.9501 23H31.9811C32.0099 23.8493 32.0099 24.8082 31.9523 25.7945Z" fill="#64CFD7"/>
<path d="M31 26C30.9459 27.0256 30.8559 28.0513 30.6937 29H29C29.4324 27.9487 30.0631 26.9231 31 26Z" fill="#FF5E2C"/>
<path d="M30 13.6916C29.9753 14.8972 29.9011 16.0467 29.7279 17H27.106C27.5512 15.8505 26.6113 15.9907 25.2756 17H23L23.2473 16.4953C25.1767 14.6168 26.9081 12.6822 28.1943 11L30 13.6916Z" fill="#FFE91A"/>
<path d="M29 11.2885C27.41 12.7308 25.31 14.3894 23 16L26.48 11H28.76L29 11.2885Z" fill="#E70000"/>
<path d="M28 23C27.748 24.6438 27.3071 26.8356 26.9606 29H24C24.126 27.0548 25.0394 24.726 25.9843 23H28V23Z" fill="#FFE91A"/>
<path d="M26.8848 17H25C26.3754 15.7377 27.3433 15.5975 26.8848 17Z" fill="#FFDF1A"/>
<path d="M26 23C25.1771 24.8488 24.3816 27.3431 24.2719 29.4266H21.9677V36C18.8956 32.5959 18.539 29.0745 19.4167 25.9932C20.5414 25.2302 21.7483 24.2619 23.0375 23H26Z" fill="#FF5E2C"/>
<path d="M25 11L20.355 19.2647C18.6095 20.6176 16.7751 21.9118 15 23V19.8824C16.9527 17.2353 19.5562 13.8235 22.4556 11H25Z" fill="#FFE91A"/>
<path d="M23 22.3571C21.9318 23.8929 20.9318 25.0714 20 26C20.4318 23.75 21.2273 21.7143 22.1136 20V22.3571H23Z" fill="#FD7D3E"/>
<path d="M22 11C19.2778 13.8311 16.8333 17.3179 15 20V15.649C16.0556 14.0099 17.2778 12.4603 18.5278 11H22Z" fill="#00B02C"/>
<path d="M21 35.2287V38H18.8108C18.6757 35.9283 17.6486 32.8879 15 30.5471L17.0811 26.8072C17.5135 26.565 18 26.3229 18.4595 26C17.6216 28.852 17.973 32.0807 21 35.2287Z" fill="#FFE91A"/>
<path d="M21 19V20.6279C20.1875 21.9302 19.4583 23.4767 19.0625 25.186C18.6875 25.4845 18.3333 25.7558 18 26L21 19Z" fill="#374282"/>
<path d="M20 19L15.663 26.7793C15.442 26.8621 15.221 26.9448 15 27V22.5034C16.6575 21.4828 18.3702 20.269 20 19Z" fill="#FF7C9C"/>
<path d="M20 38H17.5828C17.1523 36.7581 16.2252 35.574 15 34.4765V30.5199L15.3311 30C18.5762 32.5126 19.8013 35.7762 20 38Z" fill="#FF5E2C"/>
<path d="M19 11C17.5827 12.5385 16.1969 14.2372 15 16V14.2692C15.5039 13.2756 16.1654 12.1538 16.9213 11H19Z" fill="#64CFD7"/>
<path d="M17 38H15V35C15.9487 35.9344 16.6667 36.9426 17 38Z" fill="#E70000"/>
<path d="M15 11H17C16.2131 12.0588 15.5246 13.0882 15 14V11Z" fill="#FFE91A"/>
<path d="M16 26L15 28V26.381C15.3333 26.2857 15.6667 26.1429 16 26Z" fill="#FFE91A"/>
</svg>
